<svg id="Capa_1" enable-background="new 0 0 512 512" height="512" viewBox="0 0 512 512" width="512" xmlns="http://www.w3.org/2000/svg" xmlns:xlink="http://www.w3.org/1999/xlink"><linearGradient id="SVGID_1_" gradientUnits="userSpaceOnUse" x1="256" x2="256" y1="512" y2="0"><stop offset="0" stop-color="#c3ffe8"/><stop offset=".9973" stop-color="#f0fff4"/></linearGradient><linearGradient id="SVGID_2_" gradientUnits="userSpaceOnUse" x1="256" x2="256" y1="389" y2="123"><stop offset="0" stop-color="#9cffac"/><stop offset="1" stop-color="#00b59c"/></linearGradient><g><g><circle cx="256" cy="256" fill="url(#SVGID_1_)" r="256"/></g><g><g><path d="m197.796 297.312 10.392 20.755h95.624l10.392-20.764c4.528-9.066 13.671-14.703 23.837-14.703h67.205l-33.983-152.656c-.903-4.061-4.51-6.944-8.674-6.944h-213.177c-4.164 0-7.772 2.883-8.674 6.944l-33.984 152.656h67.205c10.167 0 19.309 5.637 23.837 14.712zm140.244 3.021c-3.4 0-6.436 1.87-7.946 4.892l-12.855 25.673c-1.509 3.005-4.58 4.901-7.946 4.901h-106.587c-3.365 0-6.436-1.896-7.946-4.901l-12.855-25.665c-1.509-3.031-4.545-4.901-7.946-4.901h-68.959v79.8c0 4.901 3.973 8.867 8.882 8.867h284.235c4.91 0 8.882-3.966 8.882-8.867v-79.8h-68.959z" fill="url(#SVGID_2_)"/></g></g></g></svg>